<?xml version="1.0" encoding="utf-8"?>
<!-- Generator: Adobe Illustrator 15.0.2, SVG Export Plug-In . SVG Version: 6.00 Build 0)  -->
<!DOCTYPE svg PUBLIC "-//W3C//DTD SVG 1.1//EN" "http://www.w3.org/Graphics/SVG/1.1/DTD/svg11.dtd">
<svg version="1.1" id="Layer_1" xmlns="http://www.w3.org/2000/svg" xmlns:xlink="http://www.w3.org/1999/xlink" x="0px" y="0px"
	 width="226.77px" height="170.08px" viewBox="0 0 226.77 170.08" enable-background="new 0 0 226.77 170.08" xml:space="preserve">
<path fill="none" stroke="#FFFFFF" stroke-width="18" stroke-linecap="round" stroke-miterlimit="10" d="M179.926,15.889"/>
<g>
	<path fill="none" stroke="#FFFFFF" stroke-width="18" stroke-linecap="round" stroke-miterlimit="10" d="M140.344,154.561H90.701
		c-94.258-0.138-93.619-138.672,0-138.672"/>
	<g>
		<path fill="none" stroke="#FFFFFF" stroke-width="18" stroke-linecap="round" stroke-miterlimit="10" d="M140.344,142.846"/>
		<path fill="none" stroke="#FFFFFF" stroke-width="18" stroke-linecap="round" stroke-miterlimit="10" d="M160.543,152.14"/>
		<path fill="none" stroke="#FFFFFF" stroke-width="18" stroke-linecap="round" stroke-miterlimit="10" d="M140.344,154.561
			c7.333,0,14.063-0.853,20.199-2.421"/>
		<path fill="none" stroke="#FFFFFF" stroke-width="18" stroke-linecap="round" stroke-miterlimit="10" d="M140.344,142.846
			 M140.344,26.73"/>
		<path fill="none" stroke="#FFFFFF" stroke-width="18" stroke-linecap="round" stroke-miterlimit="10" d="M179.926,154.561"/>
		<path fill="none" stroke="#FFFFFF" stroke-width="18" stroke-linecap="round" stroke-miterlimit="10" d="M160.543,152.14"/>
		<path fill="none" stroke="#FFFFFF" stroke-width="18" stroke-linecap="round" stroke-miterlimit="10" d="M179.926,143.719
			c-5.626,3.673-12.082,6.555-19.383,8.421"/>
		
			<line fill="none" stroke="#FFFFFF" stroke-width="18" stroke-linecap="round" stroke-miterlimit="10" x1="208.352" y1="15.754" x2="179.926" y2="15.889"/>
	</g>
	<g>
		<path fill="none" stroke="#FFFFFF" stroke-width="18" stroke-linecap="round" stroke-miterlimit="10" d="M112.517,73.843
			c0.021-0.163,0.042-0.327,0.064-0.491"/>
		<path fill="none" stroke="#FFFFFF" stroke-width="18" stroke-linecap="round" stroke-miterlimit="10" d="M180.391,15.889
			c-41.441,0-63.711,27.666-67.874,57.954"/>
		<path fill="none" stroke="#FFFFFF" stroke-width="18" stroke-linecap="round" stroke-miterlimit="10" d="M180.391,154.561"/>
		<path fill="none" stroke="#FFFFFF" stroke-width="18" stroke-linecap="round" stroke-miterlimit="10" d="M112.517,73.843"/>
	</g>
	<path fill="none" stroke="#FFFFFF" stroke-width="18" stroke-linecap="round" stroke-miterlimit="10" d="M179.926,143.719
		c16.679-10.89,26.093-28.675,28.426-47.621l-0.02-0.38c0.02-6.204-5.33-11.282-11.643-11.282H124.11v0.09
		c-6.108,0-11.093-4.703-11.594-10.683"/>
</g>
<line fill="none" stroke="#FFFFFF" stroke-width="20" stroke-linecap="round" stroke-miterlimit="10" x1="52.472" y1="83.905" x2="80.211" y2="83.905"/>
</svg>
