<?xml version="1.0" standalone="no"?>
<!DOCTYPE svg PUBLIC "-//W3C//DTD SVG 20010904//EN"
 "http://www.w3.org/TR/2001/REC-SVG-20010904/DTD/svg10.dtd">
<svg version="1.0" xmlns="http://www.w3.org/2000/svg"
 width="268.000000pt" height="204.000000pt" viewBox="0 0 268.000000 204.000000"
 preserveAspectRatio="xMidYMid meet">
<metadata>
Created by potrace 1.15, written by Peter Selinger 2001-2017
</metadata>
<g transform="translate(0.000000,204.000000) scale(0.100000,-0.100000)"
fill="#000000" stroke="none">
<path d="M0 1020 l0 -1020 1340 0 1340 0 0 1020 0 1020 -1340 0 -1340 0 0
-1020z m1100 885 c16 -8 34 -24 40 -34 18 -34 12 -88 -13 -117 -22 -25 -33
-28 -144 -40 -269 -29 -444 -144 -548 -359 -58 -119 -79 -226 -72 -360 17
-305 196 -534 482 -611 64 -17 109 -19 490 -19 l420 0 85 27 c150 49 246 118
325 237 53 81 92 179 101 256 l7 55 -430 0 c-494 0 -505 1 -578 75 -29 29 -49
60 -60 96 -17 53 -16 56 9 157 46 188 153 364 284 467 75 60 217 130 317 157
69 18 116 21 337 25 l258 5 35 -35 c47 -47 47 -87 2 -132 l-33 -33 -239 -5
c-176 -4 -257 -9 -305 -21 -177 -45 -322 -160 -399 -317 -44 -90 -78 -206 -64
-220 4 -4 211 -10 459 -11 l451 -3 49 -30 c30 -19 60 -49 79 -80 27 -44 30
-56 28 -124 -3 -191 -129 -435 -290 -564 -87 -70 -142 -101 -239 -136 -141
-51 -194 -56 -624 -56 -337 0 -406 3 -472 17 -355 79 -599 323 -673 673 -26
123 -23 295 9 420 89 353 354 591 714 644 94 14 171 12 202 -4z m-125 -749
c84 -36 91 -149 11 -201 -21 -14 -55 -16 -221 -13 l-197 3 -29 33 c-52 58 -28
160 43 181 55 16 353 13 393 -3z"/>
</g>
</svg>
